<svg width="19" height="24" viewBox="0 0 19 24" fill="none" xmlns="http://www.w3.org/2000/svg">
<path d="M9.33333 23.3333C6.63056 22.6528 4.39931 21.1021 2.63958 18.6812C0.879861 16.2604 0 13.5722 0 10.6167V3.5L9.33333 0L18.6667 3.5V10.6167C18.6667 13.5722 17.7868 16.2604 16.0271 18.6812C14.2674 21.1021 12.0361 22.6528 9.33333 23.3333ZM9.33333 20.8833C11.2194 20.3 12.7944 19.1479 14.0583 17.4271C15.3222 15.7063 16.0611 13.7861 16.275 11.6667H9.33333V2.47917L2.33333 5.10417V10.6167C2.33333 10.8306 2.33333 11.0056 2.33333 11.1417C2.33333 11.2778 2.35278 11.4528 2.39167 11.6667H9.33333V20.8833Z" fill="#BA1A1A"/>
</svg>
