<svg width="24" height="23" viewBox="0 0 24 23" fill="none" xmlns="http://www.w3.org/2000/svg">
<path d="M9.33333 9.33333C8.05 9.33333 6.95139 8.87639 6.0375 7.9625C5.12361 7.04861 4.66667 5.95 4.66667 4.66667C4.66667 3.38333 5.12361 2.28472 6.0375 1.37083C6.95139 0.456944 8.05 0 9.33333 0C10.6167 0 11.7153 0.456944 12.6292 1.37083C13.5431 2.28472 14 3.38333 14 4.66667C14 5.95 13.5431 7.04861 12.6292 7.9625C11.7153 8.87639 10.6167 9.33333 9.33333 9.33333ZM22.2833 22.75L18.55 19.0167C18.1417 19.25 17.7042 19.4444 17.2375 19.6C16.7708 19.7556 16.275 19.8333 15.75 19.8333C14.2917 19.8333 13.0521 19.3229 12.0312 18.3021C11.0104 17.2812 10.5 16.0417 10.5 14.5833C10.5 13.125 11.0104 11.8854 12.0312 10.8646C13.0521 9.84375 14.2917 9.33333 15.75 9.33333C17.2083 9.33333 18.4479 9.84375 19.4688 10.8646C20.4896 11.8854 21 13.125 21 14.5833C21 15.1083 20.9222 15.6042 20.7667 16.0708C20.6111 16.5375 20.4167 16.975 20.1833 17.3833L23.9167 21.1167L22.2833 22.75ZM15.75 17.5C16.5667 17.5 17.2569 17.2181 17.8208 16.6542C18.3847 16.0903 18.6667 15.4 18.6667 14.5833C18.6667 13.7667 18.3847 13.0764 17.8208 12.5125C17.2569 11.9486 16.5667 11.6667 15.75 11.6667C14.9333 11.6667 14.2431 11.9486 13.6792 12.5125C13.1153 13.0764 12.8333 13.7667 12.8333 14.5833C12.8333 15.4 13.1153 16.0903 13.6792 16.6542C14.2431 17.2181 14.9333 17.5 15.75 17.5ZM9.3625 10.5C8.54583 11.7056 8.1375 13.0667 8.1375 14.5833C8.1375 16.1 8.54583 17.4611 9.3625 18.6667H0V15.4292C0 14.7681 0.165278 14.1556 0.495833 13.5917C0.826389 13.0278 1.28333 12.6 1.86667 12.3083C2.85833 11.8028 3.97639 11.375 5.22083 11.025C6.46528 10.675 7.84583 10.5 9.3625 10.5Z" fill="#0058BE"/>
</svg>
